<?xml version="1.0" encoding="utf-8"?>
<!-- Generator: Adobe Illustrator 25.2.1, SVG Export Plug-In . SVG Version: 6.00 Build 0)  -->
<svg version="1.1" id="Layer_1" xmlns="http://www.w3.org/2000/svg" xmlns:xlink="http://www.w3.org/1999/xlink" x="0px" y="0px"
	 viewBox="0 0 1080 1080" style="enable-background:new 0 0 1080 1080;" xml:space="preserve">
<style type="text/css">
	.st0{fill:#FFFFFF;}
</style>
<g>
	<path class="st0" d="M1002.99,370.4c0.27,1.59-0.2,2.9-1.13,4.25c-3.73,5.43-7.33,10.95-11.01,16.42
		c-6.44,9.57-14.41,17.8-22.66,25.77c-24.69,23.87-52.65,43.11-83.2,58.69c-28.08,14.32-57.38,25.31-87.96,32.97
		c-20.32,5.09-40.61,10.37-60.27,17.69c-9.1,3.39-17.98,7.37-27,10.97c-2.26,0.9-3.12,2.25-2.88,4.61c0.17,1.69,0.03,3.4,0.03,5.33
		c0.92-0.07,1.51-0.01,2.03-0.16c9.71-2.84,19.36-5.87,29.12-8.52c26.46-7.2,53.02-14.04,79.43-21.39
		c29.76-8.28,59.1-17.85,87.6-29.83c16.18-6.8,31.91-14.48,46.64-24.11c8.42-5.51,16.18-11.88,23.97-18.21
		c2.99-2.43,6.04-4.78,9.08-7.15c0.38-0.3,0.85-0.49,1.28-0.73c0.91,0.84,0.44,1.53,0.04,2.21c-7.97,13.47-16.74,26.18-28.49,36.89
		c-33.6,30.6-71.57,53.99-113.75,70.72c-20.93,8.3-42.44,14.72-64.28,20.1c-22.2,5.47-44.42,10.91-66.61,16.43
		c-3.33,0.83-6.62,1.89-9.83,3.11c-5.49,2.08-9.03,6.02-10.46,11.77c-0.12,0.49-0.2,0.99-0.25,1.49c-0.02,0.18,0.11,0.37,0.23,0.76
		c0.62-0.18,1.29-0.28,1.88-0.56c10.87-5.19,22.49-7.89,34.18-10.44c23.83-5.2,47.68-10.28,71.42-15.89
		c23.42-5.54,45.95-13.7,67.47-24.59c9.4-4.76,18.91-9.29,28.38-13.91c0.94-0.46,1.95-0.76,3.19-0.63c-0.36,0.45-0.67,0.97-1.1,1.35
		c-13.23,11.51-25.97,23.62-40.72,33.28c-22.26,14.57-45.26,27.71-70.3,37.02c-12.85,4.78-26.11,8.06-39.53,10.66
		c-18.38,3.56-36.82,6.84-55.23,10.25c-3.58,0.66-7.21,1.16-10.73,2.06c-4.93,1.26-9.05,3.92-12.54,8.63
		c1.29-0.17,2.13-0.14,2.88-0.39c9.75-3.33,19.89-4.71,30.05-5.84c11.58-1.29,23.23-2.05,34.76-3.68
		c8.29-1.18,16.43-3.39,24.63-5.18c2.37-0.52,4.71-1.18,7.08-1.74c0.76-0.18,1.56-0.22,2.32-0.33c0.48,1.48-0.64,1.97-1.26,2.67
		c-11.25,12.77-25.28,21.39-41.02,27.49c-13.86,5.37-28.18,8.78-42.92,10.62c-9.78,1.22-19.58,1.96-29.42,1.61
		c-4.48-0.16-7.67,1.49-10.5,4.87c-11.46,13.73-24.16,26.26-37.27,38.4c-0.67,0.62-1.37,1.22-2.11,1.73
		c-2.61,1.81-5.4,2.24-8.33,0.89c-1.28-0.59-2.53-1.27-3.74-2.01c-16.59-10.18-33.2-20.32-49.71-30.61
		c-2.39-1.49-4.19-1.51-6.56-0.03c-16.09,10.02-32.25,19.93-48.4,29.85c-1.64,1-3.33,1.93-5.06,2.76c-2.67,1.28-5.31,1.12-7.77-0.6
		c-1.16-0.81-2.34-1.62-3.38-2.57c-13.01-11.81-25.28-24.34-36.52-37.85c-2.77-3.32-5.85-4.94-10.2-4.81
		c-14.14,0.42-28.15-0.99-42.03-3.56c-15.82-2.92-30.97-7.91-45.28-15.35c-8.17-4.25-15.38-9.79-21.9-16.25
		c-1.44-1.43-2.92-2.82-4.33-4.27c-0.67-0.69-1.22-1.5-1.83-2.26c0.1-0.22,0.2-0.43,0.3-0.65c0.91,0.12,1.85,0.14,2.74,0.36
		c6.79,1.65,13.54,3.4,20.34,4.99c9.21,2.14,18.62,2.85,28.01,3.64c12.63,1.06,25.22,2.37,37.64,4.95
		c4.22,0.88,8.36,2.16,12.94,3.37c-0.72-2.02-2.02-3.21-3.4-4.31c-4.24-3.38-9.19-5.04-14.48-5.84
		c-24.53-3.73-48.89-8.36-73.1-13.77c-20.49-4.58-39.85-12.21-58.37-22.01c-16.76-8.88-33.34-18.15-48.33-29.84
		c-10.63-8.28-20.67-17.32-30.96-26.04c-0.59-0.5-1.02-1.18-1.23-2.29c1.07,0.41,2.18,0.75,3.21,1.25
		c12.92,6.31,25.74,12.85,38.77,18.92c20.72,9.66,42.42,16.51,64.71,21.49c24.79,5.54,49.61,10.94,74.42,16.43
		c7.73,1.71,15.19,4.28,22.37,7.63c0.96,0.45,1.95,0.8,3.4,1.39c-0.89-5.33-2.67-9.45-6.81-12.24c-2.97-2.01-6.26-3.31-9.72-4.17
		c-17.77-4.45-35.53-8.91-53.31-13.32c-20.13-4.99-40.33-9.73-60.01-16.38c-39.27-13.26-75.92-31.52-109.02-56.63
		c-13.27-10.07-25.87-20.92-37.34-33.02c-2.36-2.49-4.54-5.21-6.43-8.07c-3.75-5.66-7.26-11.48-10.84-17.25
		c-0.45-0.73-0.74-1.55-1.26-2.65c1.71-0.21,2.41,0.73,3.21,1.37c6.26,5,12.47,10.06,18.77,15.01
		c14.66,11.53,30.84,20.52,47.77,28.25c26.85,12.26,54.61,22.09,82.93,30.28c25.85,7.47,51.9,14.28,77.86,21.37
		c13.47,3.68,26.95,7.33,40.41,11.03c1.95,0.54,3.83,1.32,5.75,1.96c0.83,0.28,1.69,0.48,2.72,0.78c0.83-2.71,0.55-5.24,0.29-7.69
		c-0.08-0.79-1.33-1.7-2.25-2.12c-5.35-2.42-10.72-4.81-16.16-7.02c-18.04-7.32-36.68-12.78-55.49-17.69
		c-18.31-4.78-36.69-9.31-54.5-15.8c-37.64-13.72-73.01-31.71-104.88-56.18c-16.14-12.39-31.11-26.08-44.27-41.59
		c-4.96-5.85-8.93-12.54-13.32-18.86c-1.62-2.33-3.13-4.73-4.76-7.06c-0.6-0.86-1.12-2.04-2.59-1.6c0-0.38,0-0.76,0-1.22
		c1.01,0,2.03,0,3.04,0c0.64,0.74,1.18,1.61,1.92,2.21c7.73,6.25,15.42,12.55,23.27,18.65c14.82,11.51,31.25,20.28,48.33,27.89
		c24.28,10.82,49.55,18.85,75.06,26.15c28.13,8.04,56.66,14.47,85.09,21.32c8.06,1.94,16.19,3.77,24.02,6.44
		c16.78,5.72,31.3,15.17,43.62,27.96c1.04,1.08,2.17,2.07,3.63,3.45c4.5-8.38,9.99-15.61,16.42-22.11
		c5.2-5.26,18.84-15.76,22.15-16.9c0,0.86,0.13,1.62-0.02,2.31c-0.74,3.36-1.45,6.73-2.35,10.05c-3.37,12.44-4.69,25.07-3.85,37.93
		c0.04,0.66-0.05,1.32-0.09,2.21c-6.97-2.19-13.46-5.09-20.34-6.86c0.67,0.87,1.46,1.48,2.27,2.06c5.78,4.12,11.53,8.28,17.38,12.3
		c1.47,1.01,2.18,2.2,2.5,3.89c0.71,3.78,1.57,7.53,2.35,11.29c0.12,0.56,0.12,1.15,0.2,2.06c-7.16-2.59-14.03-5.07-20.89-7.55
		c0.65,1.17,1.51,1.86,2.4,2.49c6.69,4.76,13.4,9.5,20.08,14.27c0.8,0.57,1.79,1.21,2.14,2.05c1.47,3.5,2.73,7.1,4.29,11.25
		c-7.72-2.79-14.88-5.38-22.04-7.97c0.63,1.06,1.42,1.68,2.24,2.26c7.77,5.52,15.53,11.05,23.32,16.54
		c1.35,0.95,2.42,2.02,3.19,3.54c12.06,23.73,27.5,45.15,44.97,65.16c0.65,0.74,1.39,1.4,2.22,2.22
		c6.98-4.68,13.75-9.22,20.79-13.94c-0.93-1.01-1.58-1.75-2.27-2.46c-14.25-14.65-27.18-30.37-38.35-47.5
		c-10.16-15.58-19.07-31.81-25.21-49.43c-6.12-17.57-8.78-35.56-5.95-54.12c2.77-18.15,10.85-33.75,23.88-46.51
		c9.12-8.93,19.05-17.03,28.63-25.48c0.54-0.47,1.25-0.75,1.88-1.12c0.18,0.15,0.37,0.31,0.55,0.46c-0.44,0.84-0.81,1.72-1.32,2.52
		c-3.71,5.81-7.56,11.53-11.14,17.42c-2.2,3.62-4.31,7.36-5.93,11.27c-5.18,12.5-5.3,25.44-2.79,38.54
		c2.65,13.81,8.29,26.43,15.3,38.5c15.47,26.64,35.63,49.45,57.81,70.61c0.56,0.54,1.25,0.95,2.04,1.54
		c0.85-0.76,1.62-1.4,2.32-2.09c3.74-3.72,7.52-7.4,11.19-11.19c15.72-16.2,30.24-33.35,42.19-52.57
		c7.58-12.19,13.98-24.89,17.68-38.85c2.73-10.31,3.67-20.75,2.19-31.33c-1.13-8.13-3.98-15.69-8.38-22.63
		c-4.07-6.42-8.21-12.8-12.27-19.22c-0.53-0.84-1.58-1.62-0.81-3.21c1.4,1.08,2.71,2.01,3.92,3.05c6.85,5.88,13.74,11.71,20.5,17.7
		c24.23,21.46,34.24,48.33,30.3,80.38c-1.39,11.31-4.38,22.25-8.64,32.82c-8.2,20.33-19.35,39-32.32,56.61
		c-8.67,11.77-18.17,22.86-28.31,33.4c-0.88,0.91-1.65,1.92-2.6,3.04c0.54,0.39,0.78,0.57,1.03,0.74
		c5.97,4.02,11.93,8.05,17.92,12.05c1.6,1.07,1.94,0.97,3.32-0.55c0.89-0.98,1.73-1.99,2.58-3c17.66-20.65,33.4-42.58,45-67.28
		c0.59-1.25,1.44-2.09,2.55-2.87c8.21-5.78,16.38-11.61,24.55-17.43c0.67-0.48,1.29-1.04,1.93-1.56c-1.33-0.19-2.37,0.11-3.38,0.48
		c-5.13,1.88-10.25,3.79-15.39,5.65c-1.07,0.39-2.22,0.56-3.65,0.91c1.31-3.82,2.52-7.14,3.59-10.52c0.48-1.52,1.28-2.61,2.61-3.54
		c6.98-4.88,13.91-9.84,20.85-14.78c0.85-0.6,1.68-1.24,2.52-1.86c-7.59,1.83-14.6,5.09-22.23,7.24c0.78-4.58,1.56-8.65,2.11-12.75
		c0.21-1.57,0.86-2.52,2.12-3.4c5.83-4.05,11.6-8.19,17.38-12.3c0.87-0.62,1.7-1.29,2.55-1.93c-0.09-0.17-0.18-0.35-0.27-0.52
		c-6.87,2.48-13.74,4.96-20.89,7.54c0-2.28-0.04-4.1,0.01-5.92c0.23-8.16-0.74-16.19-2.54-24.12c-1.05-4.64-2.28-9.24-3.35-13.88
		c-0.3-1.3-1.02-2.67,0.17-4.38c2.52,1.83,4.96,3.57,7.36,5.36c2.44,1.82,4.9,3.61,7.24,5.56c2.34,1.94,4.6,3.99,6.76,6.12
		c2.23,2.21,4.39,4.51,6.4,6.92c1.95,2.33,3.74,4.8,5.46,7.3c1.68,2.45,3.18,5.02,4.72,7.47c0.59-0.26,0.81-0.3,0.95-0.43
		c1.46-1.4,2.91-2.82,4.37-4.23c14.65-14.16,31.62-24.21,51.52-29.09c28.01-6.87,56.07-13.56,84.02-20.67
		c27.97-7.12,55.51-15.68,82.22-26.71c16.7-6.9,33.03-14.63,47.76-25.16c11.13-7.95,21.66-16.74,32.43-25.18
		c0.69-0.54,1.16-1.35,1.73-2.04C1002.58,370.4,1002.79,370.4,1002.99,370.4z"/>
</g>
</svg>
